<svg version="1" xmlns="http://www.w3.org/2000/svg" width="933.333" height="933.333" viewBox="0 0 700.000000 700.000000"><path d="M343.3 1.2c-2.1 1-11.4 11.4-33.3 37.3-4.6 5.5-8.9 10.5-9.5 11.1-.5.6-2.6 3.1-4.7 5.5-2 2.4-4.6 5.5-5.8 6.9-1.2 1.4-2.9 3.4-3.9 4.5-6.6 7.7-13.1 22.6-14.9 33.7-.5 3.2-.9 32.6-.9 65.5-.1 32.9-.3 61-.6 62.4-.8 4.2-2.8 7.4-15.8 26-11.7 16.8-17 26-18.5 32.4-.4 1.6-.9 11.7-1.1 22.4-.3 18-.2 19.6 1.7 22.6 3.8 6.1 6.1 6.9 20.5 7.1 7.2.1 13.9.2 15.1.3 2.1.1 2.1.5 2.1 15.9 0 13.1.4 16.5 1.8 19.6 3.3 6.8 12.2 9.1 18.4 4.7 5.1-3.7 5.5-5.3 5.7-22.9.1-8.9.4-16.6.8-16.9.4-.4 1.8-.9 3.2-1.1 3.9-.5 6.8-2.7 9.1-6.9 3.3-6 1.1-13.2-5-16.8-2.7-1.6-5.8-1.8-25.1-1.9l-22.1-.1V302c.1-8.8.4-11.1 2.2-14.5 2-3.6 21.8-32.5 24.1-35.1 2.5-2.8 7.4-14 8.4-19.2.7-3.6 1.1-28.3 1.2-67.7.2-61.7.2-62 2.5-68.5 1.3-3.6 3.9-8.7 5.8-11.4 2.8-3.9 19.9-24.3 22.3-26.6.3-.3 2.7-3.2 5.5-6.5 5.5-6.7 9.5-11.2 14-16.2l3-3.3 6 7.2c3.3 3.9 6.7 7.8 7.5 8.7.9.9 5.4 6.1 10 11.6 4.7 5.5 8.9 10.5 9.5 11.1 9.8 10.6 15.1 18.4 17.6 26.4 2 6.3 2.1 8.7 2.4 70.5.2 62.7.2 64.1 2.4 70.3 2.1 6.2 6 13.1 19.3 33.7 10.2 15.9 10.9 17.8 11.2 29.5.1 5.5 0 10-.3 10.1-.4 0-10.1.2-21.7.3l-21.1.1-3.6 2.8c-8 6.1-7 16.9 2 21.6l3.8 1.9v16.4c.1 15.1.3 16.7 2.3 20 5.2 8.4 17.1 7.8 22-1.1 1.7-3.2 1.9-5.5 1.8-19.6l-.1-16.1 15 .1c18.3.1 21.3-.9 24.7-8.5 1.8-4.1 1.3-37.3-.7-45-2.1-8.3-3.4-10.6-16.8-31.8-6.2-9.7-11.9-19.1-12.7-20.7-1.2-2.5-1.4-13-1.6-62.5 0-32.7-.4-62.9-.8-67-.9-9-5.7-22.3-10.8-30-4.2-6.3-56.6-67.5-60.2-70.4-2.8-2.1-10.1-2.9-13.3-1.4zm-277 152.7c-9.2 3.1-15.8 9.6-19.4 19.1-1.8 4.9-1.9 9.1-1.9 133.1 0 126.8 0 128.2 2 131.4 2.2 3.5 7.3 6.5 11.3 6.5 3.5 0 8.9-4 10.9-8 1.7-3.3 1.8-11.5 1.8-129.2V181l2.3-1.4c2-1.3 12.8-1.5 81-1.5 74.1 0 78.9-.1 81.8-1.8 6.8-4 8.8-12.5 4.3-18.7-4.2-5.6-.9-5.4-88.4-5.4-73.9 0-81 .1-85.7 1.7z"/><path d="M465.1 154.1c-9.3 4.2-9.7 17.1-.7 22.5 2.9 1.8 6.9 1.8 82.3 1.9 73 0 79.4.1 80.9 1.7 1.6 1.6 1.7 12.4 1.8 152.7l.1 151.1h-29.1l-1.3-3.5c-.6-1.9-2.6-4.5-4.4-5.7-3.2-2.3-3.6-2.3-37.2-2.5-18.7-.1-34.3-.2-34.7-.2-.3-.1-.9-1.6-1.3-3.4-7-35-38.2-61.9-73-62.8-9.9-.3-15.1 3.6-15.9 11.8-.8 7.5 4.7 13.2 13.1 13.9 2.7.3 5.9.6 7.3.8 18.4 2.8 35.2 17 41.3 35 1.6 4.5 1.5 4.6-.6 4.7-12.7.5-54.6.3-55.9-.3-.9-.5-1.9-2.5-2.3-5-2.4-15.7-13-35.3-25.3-47-11.7-11.1-25.3-18.6-40.7-22.3l-9-2.2-.5-46.9c-.5-44.2-.6-47.1-2.4-50.1-2.2-3.6-8.3-6.6-12.1-5.9-3.9.7-7.9 3.5-9.8 6.8-1.5 2.7-1.7 7.3-1.7 49.9V396l-2.7.6c-22 5-38.9 15.4-52.4 32.4-8.4 10.6-15.7 26.6-17.6 39-.3 1.9-.7 3.7-.9 3.9-.3.3-52.3.5-57.8.2-1.3-.1-1.2-1 .5-5.8 6.1-17.8 23.1-31.8 41.1-33.9 2.1-.2 5.6-.6 7.9-.9 12.9-1.5 17-16.9 6.2-23.6-9.1-5.7-35.1.6-51.6 12.5-10.6 7.5-22.1 21.4-25.6 30.8-.7 1.8-1.6 4-2.1 4.9-.4.8-1.6 4.7-2.5 8.7-1.3 5.1-2.2 7.2-3.4 7.3-11.7.6-110.2-.1-112.1-.8-5.2-2.1-12.5 1.7-15 7.6-.8 2-1 15.6-.8 46.7l.3 43.9 2.7 5c4 7.6 12.1 14.5 18.8 16.1 1.9.4 4.2.9 5 1.1.8.1 125.8.3 277.6.3 189.4 0 277.7-.3 280.9-1 9.5-2.1 16.9-7.9 21.6-17l2.4-4.5.3-195.5c.3-218.1.8-200.2-6.8-209.9-2.8-3.5-5.9-5.9-10.7-8.3l-6.8-3.3h-80.8c-73.2-.1-81.3.1-84.6 1.6zM365 422.9c17.6 4.9 31.7 16.5 39.7 32.6 3.1 6.2 5.9 15.2 5.1 16-.4.4-62.1.7-114 .5h-8.6l1.3-4.9c3.6-13.8 13-27.3 24.4-35.1 4.9-3.4 13.7-7.8 17.4-8.6 1.8-.4 3.9-.9 4.7-1.1 9.4-2.3 20.3-2 30 .6zm-17.5 204.9c-3.2.7-7.4 4.1-9 7.2-1.2 2.3-1.5 6.9-1.5 21v18h-57.4c-56.1 0-57.6 0-60.9 2-8.9 5.2-8.4 18.1.8 22.4 3 1.4 16.5 1.6 131.2 1.6 123.5 0 127.9-.1 130.7-1.9 8.7-5.8 8.5-17.5-.5-22.3-3.1-1.7-7.1-1.8-60.6-1.8H363v-18.3c0-16.3-.2-18.5-2-21.4-3.1-5.1-8.3-7.7-13.5-6.5z"/></svg>